<svg style="display: none;">
    <symbol id="document" xmlns="http://www.w3.org/2000/svg" width="31" height="40" viewBox="0 0 31 40">
        <path fill="#FFF" fill-rule="nonzero" d="M30.418 8.24c.31.31.372.693.372 1.211v28.413c0 .566-.57 1.118-1.244 1.292-.034.008-.066.021-.101.028a1.65 1.65 0 0 1-.322.032H2.005a1.65 1.65 0 0 1-.321-.032c-.036-.007-.068-.02-.102-.028-.674-.174-1.244-.726-1.244-1.292V1.978C.338.62 1.202 0 2.005 0h19.64c.334 0 .662.136.898.372l.522.521 6.831 6.826.522.521zm-2.04-.126L22.67 2.41v5.704h5.707zM2.004 37.864h27.118c.048 0 .092-.018.134-.033a.31.31 0 0 0 .18-.28v-9.83H1.692v9.83c0 .124.074.23.18.28.042.015.085.033.133.033zM1.692 26.37h27.745V9.45l-.001-.024c-.085.022-.173.039-.264.039h-7.856v-7.85c0-.09.017-.179.04-.264H2.005c-.292 0-.314.48-.314.626V26.37zm9.164 3.883c.225.186.408.408.546.67.14.263.209.557.209.883 0 .346-.059.658-.176.939a1.97 1.97 0 0 1-.49.707c-.21.19-.464.339-.76.444a2.921 2.921 0 0 1-.98.157h-.823v2.459h-1.11v-6.813h1.96c.29 0 .577.046.86.139.284.092.538.23.764.415zm-.421 2.251a2.079 2.079 0 0 0 .055-1.082 1.107 1.107 0 0 0-.19-.415 1.121 1.121 0 0 0-.402-.333c-.173-.09-.401-.134-.685-.134h-.832v2.7h1.018c.135 0 .27-.024.402-.07.133-.046.255-.122.366-.227.11-.105.2-.25.268-.439zm7.128-1.807a3 3 0 0 1 .644 1.03c.141.384.212.78.212 1.188 0 .56-.06 1.04-.18 1.437-.121.398-.273.73-.459.999-.185.268-.393.48-.624.633-.232.155-.455.27-.67.347a2.733 2.733 0 0 1-.593.148c-.18.022-.312.033-.398.033h-2.58v-6.813h2.053c.573 0 1.077.091 1.512.272.436.182.796.424 1.083.726zm-.81 4.28c.334-.48.5-1.177.5-2.09 0-.283-.034-.563-.101-.84a1.799 1.799 0 0 0-.393-.754 2.075 2.075 0 0 0-.792-.545c-.332-.139-.764-.209-1.295-.209h-.647v5.159h1.1c.753 0 1.296-.24 1.629-.721zm3.276 1.535v-6.813h4.265v.841h-3.136v2.145h2.85v.758h-2.85v3.069h-1.129zm1.915-20.987c1.06 0 1.702.247 1.963.754.217.421.127.912-.264 1.46-.377.527-.896.806-1.503.806-.823 0-1.78-.52-2.85-1.545a32.443 32.443 0 0 0-5.973 1.908c-.566 1.2-1.108 2.165-1.613 2.874-.692.972-1.29 1.425-1.882 1.425-.236 0-.462-.077-.655-.22-.704-.529-.799-1.116-.754-1.517.123-1.1 1.485-2.253 4.05-3.426 1.018-2.229 1.986-4.975 2.563-7.269-.675-1.469-1.332-3.374-.853-4.492.168-.391.377-.691.767-.821a3.34 3.34 0 0 1 .688-.116c.34 0 .64.438.853.709.2.254.652.793-.252 4.599.912 1.882 2.204 3.8 3.443 5.113.887-.16 1.65-.242 2.272-.242zm-12.107 6.54c.1-.031.69-.3 1.785-2.323-1.446.812-2.035 1.48-2.077 1.855-.007.062-.025.226.292.468zm5.548-15.498c-.066.022-.9 1.188.065 2.174.643-1.43-.035-2.184-.065-2.174zm-1.398 10.836a33.728 33.728 0 0 1 4.396-1.366c-.914-1.06-1.827-2.384-2.587-3.749a48.177 48.177 0 0 1-1.81 5.115zm8.73-.324c.1-.142.14-.232.155-.28-.083-.045-.194-.133-.795-.133-.342 0-.771.014-1.226.073.552.424.686.638 1.047.638.158 0 .61-.007.819-.298z"/>
    </symbol>
    <symbol id="arrow" xmlns="http://www.w3.org/2000/svg" xmlns:xlink="http://www.w3.org/1999/xlink" x="0px" y="0px"
	 viewBox="0 0 10 4.4" style="enable-background:new 0 0 10 4.4;" xml:space="preserve">
        <path d="M10,2.2c0,0.1,0,0.1-0.1,0.1l-2.2,2c-0.1,0.1-0.1,0.1-0.2,0c-0.1,0-0.1-0.1-0.1-0.2V3H0.2c-0.1,0-0.1,0-0.1-0.1
        C0,2.9,0,2.8,0,2.8V1.7c0-0.1,0-0.1,0.1-0.1c0,0,0.1-0.1,0.1-0.1h7.2V0.2c0-0.1,0-0.1,0.1-0.2s0.1,0,0.2,0l2.2,2
        C10,2.1,10,2.2,10,2.2z"/>
    </symbol>
</svg>